<?xml version="1.0" encoding="UTF-8"?>
<svg version="1.1" xmlns="http://www.w3.org/2000/svg" width="2362" height="945">
<path d="M0 0 C779.46 0 1558.92 0 2362 0 C2362 58.08 2362 116.16 2362 176 C2355.84311644 177.75910959 2350.04618089 178.92187059 2343.75 179.875 C2342.62956299 180.04499512 2341.50912598 180.21499023 2340.35473633 180.39013672 C2254.34443663 193.09136614 2167.3704581 190.81945449 1941.20703125 149.3125 C1859.58660715 131.35509199 1778.41093539 115.37685816 1587 129 C1585.84355988 129.17822296 1585.84355988 129.17822296 1584.66375732 129.36004639 C1535.7118071 136.93037061 1487.44504634 148.56520778 1439.44744873 160.66152954 C1366.45070256 179.05463376 1293.04212767 196.74630746 1218 204.3125 C1217.2543277 204.38813171 1216.5086554 204.46376343 1215.74038696 204.54168701 C1210.16537148 205.09650396 1204.58514947 205.56024113 1199 206 C1197.94581879 206.08613556 1196.89163757 206.17227112 1195.80551147 206.26101685 C1173.868412 208.01450533 1152.02022863 208.3630907 1130.02251816 208.31785583 C1127.27124647 208.31241847 1124.51998338 208.31004912 1121.76870728 208.3079834 C1095.52778956 208.27728649 1069.43644683 207.84859822 1043.30621338 205.22784424 C1040.94772439 204.99483539 1038.58827645 204.77641607 1036.22802734 204.56201172 C970.01735866 198.52352881 904.22514628 186.439561 839.95166016 169.51379395 C838.07907447 169.02081714 836.20557182 168.53132746 834.33203125 168.04199219 C801.88750647 159.51675219 769.88933587 149.34468299 738.35331726 137.92626953 C733.94237743 136.33077669 729.51357463 134.79763497 725.07177734 133.29077148 C712.65025063 129.06013794 700.51590669 124.0929503 688.35821533 119.16711426 C683.74193474 117.29697017 679.11655903 115.45077053 674.48730469 113.61303711 C665.92930757 110.21352648 657.43793574 106.68810436 649 103 C648.10861328 103.81791016 648.10861328 103.81791016 647.19921875 104.65234375 C642.72403427 108.72385684 638.20456389 112.69473933 633.5 116.5 C629.03579543 120.11149134 624.76997886 123.88660694 620.52734375 127.75390625 C617.93037607 130.06187598 615.26595987 132.25555863 612.5625 134.4375 C608.75912497 137.51336588 605.09917348 140.68753166 601.5 144 C595.35588155 149.64309592 589.10802037 155.29853008 582.125 159.890625 C578.48947877 162.34460183 575.18009212 165.07129167 571.8125 167.875 C563.4749566 174.73433224 554.83371459 181.13510649 546.09716797 187.47412109 C544.25675558 188.81318715 542.42475909 190.1623977 540.59765625 191.51953125 C539.18806641 192.56173828 539.18806641 192.56173828 537.75 193.625 C536.98171875 194.19476563 536.2134375 194.76453125 535.421875 195.3515625 C532.98789444 197.00823959 530.47137783 198.44274158 527.90576172 199.88378906 C524.39054941 201.94266053 521.05608822 204.27457745 517.6875 206.5625 C474.67337734 235.39841471 428.09355725 256.80481959 378 270 C376.89446777 270.29213379 375.78893555 270.58426758 374.64990234 270.88525391 C339.49009657 280.04781622 302.95070902 285.99830853 266.5546875 286.23828125 C265.31724792 286.24798447 264.07980835 286.25768768 262.80487061 286.26768494 C258.82823921 286.29246926 254.85169329 286.30585173 250.875 286.3125 C250.19737358 286.31394516 249.51974716 286.31539032 248.82158661 286.31687927 C226.63532151 286.35508523 204.94127973 285.41890067 183 282 C180.99754277 281.71900295 178.99494923 281.43897475 176.9921875 281.16015625 C145.74180287 276.51982318 113.95166209 267.65014678 85.25 254.4765625 C82.52284618 253.23754309 79.79978144 252.12162785 77 251.0625 C63.19505932 245.61862156 50.06006331 238.00370154 37 231 C35.94365356 230.4421582 35.94365356 230.4421582 34.8659668 229.87304688 C28.20262417 226.2807538 21.96297229 222.0996895 15.6875 217.875 C14.08165039 216.80185547 14.08165039 216.80185547 12.44335938 215.70703125 C8.22414051 212.88012819 4.06428622 210.04821466 0 207 C0 138.69 0 70.38 0 0 Z " fill="#F7F8F9" transform="translate(0,0)"/>
<path d="M0 0 C274.23 0 548.46 0 831 0 C828.45096316 2.54903684 826.15170716 3.1784717 822.75390625 4.3984375 C821.44247388 4.87563748 820.13120159 5.35327757 818.82006836 5.83129883 C817.78026321 6.20757919 817.78026321 6.20757919 816.7194519 6.59146118 C800.81617578 12.36851822 785.33877989 18.8476355 770 26 C768.75159371 26.57693908 767.50305519 27.15359212 766.25439453 27.72998047 C747.45752764 36.42953161 729.62827623 46.12201199 712 57 C710.43186794 57.94936902 708.86294956 58.89744141 707.29296875 59.84375 C698.1473108 65.39903316 689.53592627 71.55479891 681 78 C679.92738987 78.80509606 678.85448537 79.60980011 677.78125 80.4140625 C675.79728952 81.90203286 673.81543123 83.39281128 671.8359375 84.88671875 C669.04407829 86.96715378 666.21375875 88.98424274 663.375 91 C657.89337856 94.96727422 652.96372045 99.41231898 648 104 C642.67938387 108.75436582 637.2286533 113.35371779 631.77587891 117.95483398 C628.21636021 120.96130264 624.69186298 124.00243344 621.1953125 127.08203125 C618.29368693 129.61708135 615.36547265 132.12046959 612.4375 134.625 C606.65257067 139.57339282 600.89268353 144.54983269 595.15014648 149.54736328 C593.43709785 151.03588498 591.71966056 152.51912486 590 154 C589.4740625 154.45648926 588.948125 154.91297852 588.40625 155.38330078 C586.20870122 157.26060728 584.05524306 158.96704956 581.5703125 160.44921875 C578.05078857 162.57270051 575.02567316 165.18256037 571.875 167.8125 C563.51885079 174.69685528 554.85816922 181.11736283 546.09716797 187.47412109 C544.25675558 188.81318715 542.42475909 190.1623977 540.59765625 191.51953125 C539.18806641 192.56173828 539.18806641 192.56173828 537.75 193.625 C536.98171875 194.19476563 536.2134375 194.76453125 535.421875 195.3515625 C532.98789444 197.00823959 530.47137783 198.44274158 527.90576172 199.88378906 C524.39054941 201.94266053 521.05608822 204.27457745 517.6875 206.5625 C474.67337734 235.39841471 428.09355725 256.80481959 378 270 C376.89446777 270.29213379 375.78893555 270.58426758 374.64990234 270.88525391 C339.49009657 280.04781622 302.95070902 285.99830853 266.5546875 286.23828125 C265.31724792 286.24798447 264.07980835 286.25768768 262.80487061 286.26768494 C258.82823921 286.29246926 254.85169329 286.30585173 250.875 286.3125 C250.19737358 286.31394516 249.51974716 286.31539032 248.82158661 286.31687927 C226.63532151 286.35508523 204.94127973 285.41890067 183 282 C180.99754277 281.71900295 178.99494923 281.43897475 176.9921875 281.16015625 C145.74180287 276.51982318 113.95166209 267.65014678 85.25 254.4765625 C82.52284618 253.23754309 79.79978144 252.12162785 77 251.0625 C63.19505932 245.61862156 50.06006331 238.00370154 37 231 C35.94365356 230.4421582 35.94365356 230.4421582 34.8659668 229.87304688 C28.20262417 226.2807538 21.96297229 222.0996895 15.6875 217.875 C14.08165039 216.80185547 14.08165039 216.80185547 12.44335938 215.70703125 C8.22414051 212.88012819 4.06428622 210.04821466 0 207 C0 138.69 0 70.38 0 0 Z " fill="#192025" transform="translate(0,0)"/>
</svg>
