<?xml version="1.0" encoding="UTF-8"?>
<svg version="1.1" xmlns="http://www.w3.org/2000/svg" width="2362" height="446">
<path d="M0 0 C779.46 0 1558.92 0 2362 0 C2362 108.24 2362 216.48 2362 328 C2348.06636326 331.48340918 2348.06636326 331.48340918 2341.7734375 332.6484375 C2341.03910995 332.78612045 2340.30478241 332.92380341 2339.54820251 333.06565857 C2337.15837747 333.50925018 2334.76709825 333.94384093 2332.375 334.375 C2331.53995941 334.52585052 2330.70491882 334.67670105 2329.84457397 334.8321228 C2244.47805741 350.11052336 2157.06030861 348.75472628 1928.8710022 307.24658203 C1886.47128012 297.70053907 1844.04879191 288.16988854 1801 282 C1800.31435974 281.90136658 1799.62871948 281.80273315 1798.92230225 281.70111084 C1712.25706378 269.29635116 1624.98284527 275.9869247 1418.6182251 320.97821045 C1351.35054938 338.19351635 1283.69087081 354.17782847 1214.5 361.3125 C1213.77265656 361.38804108 1213.04531311 361.46358215 1212.29592896 361.54141235 C1206.86910273 362.09493885 1201.4369845 362.55874647 1196 363 C1194.97997894 363.08613556 1193.95995789 363.17227112 1192.9090271 363.26101685 C1171.58017996 365.02467315 1150.34954369 365.36368556 1128.96001816 365.31805801 C1126.27124725 365.3124134 1123.58248267 365.30959545 1120.89370728 365.30697632 C1095.33121075 365.27079083 1069.90044343 364.92498611 1044.45446777 362.25646973 C1041.85221534 361.98455784 1039.24899591 361.7236677 1036.64550781 361.46386719 C948.36395882 352.56823421 861.15436968 334.16429428 777 306 C776.12557251 305.70738281 775.25114502 305.41476562 774.35021973 305.11328125 C739.57397052 293.44384396 705.48155079 280.32662829 671.86132812 265.65820312 C670.80729294 265.1996846 670.80729294 265.1996846 669.73196411 264.73190308 C667.84134321 263.90836603 665.95258305 263.08056092 664.06396484 262.25244141 C660.61435519 260.8064517 660.61435519 260.8064517 657 260 C654.67632393 261.52381996 654.67632393 261.52381996 652.4375 263.8125 C651.12458984 265.05580078 651.12458984 265.05580078 649.78515625 266.32421875 C648.86605469 267.20722656 647.94695313 268.09023438 647 269 C645.13028776 270.71411899 643.2553144 272.42251784 641.375 274.125 C640.45074219 274.96546875 639.52648437 275.8059375 638.57421875 276.671875 C632.36082483 282.29127224 625.99438304 287.73129358 619.62573242 293.1730957 C616.48673369 295.85768384 613.35951448 298.55416367 610.25390625 301.27734375 C603.7433831 306.98062308 597.17241509 312.54217251 590.32885742 317.84277344 C586.59979624 320.73200282 582.93182016 323.68281762 579.29174805 326.68334961 C569.79735503 334.49833476 559.98575428 341.82643937 550 349 C549.17951172 349.58958496 548.35902344 350.17916992 547.51367188 350.78662109 C535.61376835 359.30216972 523.49002794 367.37596944 511 375 C510.3090625 375.42200684 509.618125 375.84401367 508.90625 376.27880859 C503.9831015 379.26701772 499.00840749 382.15727928 494 385 C493.12811035 385.49612793 492.2562207 385.99225586 491.35791016 386.50341797 C441.15863062 414.87312734 385.97026427 431.47924613 329.0824585 439.6986084 C327.16436045 439.97621232 325.24740272 440.26166522 323.33056641 440.54785156 C283.50853813 446.24075485 240.69169069 445.49096224 201 439 C200.00785492 438.84017639 200.00785492 438.84017639 198.9956665 438.67712402 C127.86724188 427.16000675 59.64962649 396.7514953 4.49194336 350.19824219 C3.05885564 349.04726943 1.52936156 348.01957437 0 347 C0 232.49 0 117.98 0 0 Z " fill="#F7F8F9" transform="translate(0,0)"/>
<path d="M0 0 C436.59 0 873.18 0 1323 0 C1319.72182872 3.27817128 1316.82970255 5.6380729 1313.0625 8.25 C1306.78656666 12.64823507 1300.69767471 17.26367692 1294.625 21.9375 C1286.52666146 28.14982483 1278.3151226 34.10228059 1269.828125 39.77050781 C1268.07084067 40.95235662 1266.33080953 42.15586995 1264.59375 43.3671875 C1189.83694222 95.0384292 1101.1808474 113.08849122 1005.765625 123.9765625 C1005.00771164 124.06253504 1004.24979828 124.14850758 1003.46891785 124.23708534 C995.85897542 125.099682 988.24843557 125.95575537 980.6347723 126.78492451 C954.5812846 129.62739242 928.50456095 132.85666023 902.9375 138.75 C902.20638 138.9154129 901.47526001 139.08082581 900.72198486 139.25125122 C856.13490223 149.36498204 813.19037259 165.25287082 772 185 C770.45916748 185.73355713 770.45916748 185.73355713 768.88720703 186.48193359 C736.9959224 201.7478457 708.01030688 220.61477838 679.84765625 241.87890625 C676.99134802 244.00644448 674.0930437 246.06542412 671.1875 248.125 C667.34392957 250.90030014 664.02661672 253.80479343 660.78198242 257.25024414 C659.03307983 258.96751841 657.25319408 260.35313257 655.26171875 261.77734375 C651.05210696 264.88734719 647.27917602 268.3245229 643.5 271.9375 C642.17916755 273.18442276 640.85756248 274.43052766 639.53515625 275.67578125 C638.91656738 276.25924316 638.29797852 276.84270508 637.66064453 277.44384766 C634.51822632 280.38853652 631.27594307 283.20581326 628 286 C626.9789719 286.87477272 625.95815929 287.74979699 624.9375 288.625 C623.16762226 290.14257871 621.3971738 291.65946057 619.62475586 293.17407227 C616.48598643 295.85822411 613.35916982 298.55446588 610.25390625 301.27734375 C603.7433831 306.98062308 597.17241509 312.54217251 590.32885742 317.84277344 C586.59979624 320.73200282 582.93182016 323.68281762 579.29174805 326.68334961 C569.79735503 334.49833476 559.98575428 341.82643937 550 349 C549.17951172 349.58958496 548.35902344 350.17916992 547.51367188 350.78662109 C535.61376835 359.30216972 523.49002794 367.37596944 511 375 C510.3090625 375.42200684 509.618125 375.84401367 508.90625 376.27880859 C503.9831015 379.26701772 499.00840749 382.15727928 494 385 C493.12811035 385.49612793 492.2562207 385.99225586 491.35791016 386.50341797 C441.15863062 414.87312734 385.97026427 431.47924613 329.0824585 439.6986084 C327.16436045 439.97621232 325.24740272 440.26166522 323.33056641 440.54785156 C283.50853813 446.24075485 240.69169069 445.49096224 201 439 C200.00785492 438.84017639 200.00785492 438.84017639 198.9956665 438.67712402 C127.86724188 427.16000675 59.64962649 396.7514953 4.49194336 350.19824219 C3.05885564 349.04726943 1.52936156 348.01957437 0 347 C0 232.49 0 117.98 0 0 Z " fill="#0E1A20" transform="translate(0,0)"/>
</svg>
